<mxfile host="app.diagrams.net" modified="2021-02-25T13:46:41.733Z" agent="5.0 (Windows NT 10.0; Win64; x64) AppleWebKit/537.36 (KHTML, like Gecko) Chrome/88.0.4324.182 Safari/537.36" etag="qGAVttppYXUbR9cvXdSX" version="14.4.2" type="github">
  <diagram id="C5RBs43oDa-KdzZeNtuy" name="Page-1">
    <mxGraphModel dx="1038" dy="588" grid="1" gridSize="10" guides="1" tooltips="1" connect="1" arrows="1" fold="1" page="1" pageScale="1" pageWidth="827" pageHeight="1169" math="0" shadow="0">
      <root>
        <mxCell id="WIyWlLk6GJQsqaUBKTNV-0" />
        <mxCell id="WIyWlLk6GJQsqaUBKTNV-1" parent="WIyWlLk6GJQsqaUBKTNV-0" />
        <mxCell id="WIyWlLk6GJQsqaUBKTNV-2" value="" style="rounded=0;html=1;jettySize=auto;orthogonalLoop=1;fontSize=11;endArrow=block;endFill=0;endSize=8;strokeWidth=1;shadow=0;labelBackgroundColor=none;edgeStyle=orthogonalEdgeStyle;entryX=0.5;entryY=0;entryDx=0;entryDy=0;" parent="WIyWlLk6GJQsqaUBKTNV-1" source="WIyWlLk6GJQsqaUBKTNV-3" target="SfKNRKPeof5HC8NViVsP-0" edge="1">
          <mxGeometry relative="1" as="geometry">
            <mxPoint x="329" y="190" as="targetPoint" />
          </mxGeometry>
        </mxCell>
        <mxCell id="WIyWlLk6GJQsqaUBKTNV-3" value="Pick file from S3&amp;nbsp;" style="rounded=1;whiteSpace=wrap;html=1;fontSize=12;glass=0;strokeWidth=1;shadow=0;" parent="WIyWlLk6GJQsqaUBKTNV-1" vertex="1">
          <mxGeometry x="259" y="80" width="200" height="20" as="geometry" />
        </mxCell>
        <mxCell id="SfKNRKPeof5HC8NViVsP-0" value="Create Tenant on DI Env" style="rounded=1;whiteSpace=wrap;html=1;" vertex="1" parent="WIyWlLk6GJQsqaUBKTNV-1">
          <mxGeometry x="259" y="140" width="200" height="20" as="geometry" />
        </mxCell>
        <mxCell id="SfKNRKPeof5HC8NViVsP-2" value="Clone DB from PROD into DI Env" style="rounded=1;whiteSpace=wrap;html=1;fontSize=12;glass=0;strokeWidth=1;shadow=0;" vertex="1" parent="WIyWlLk6GJQsqaUBKTNV-1">
          <mxGeometry x="259" y="200" width="200" height="20" as="geometry" />
        </mxCell>
        <mxCell id="SfKNRKPeof5HC8NViVsP-3" value="Begin Preliminary Checks" style="rounded=1;whiteSpace=wrap;html=1;" vertex="1" parent="WIyWlLk6GJQsqaUBKTNV-1">
          <mxGeometry x="259" y="260" width="200" height="20" as="geometry" />
        </mxCell>
        <mxCell id="SfKNRKPeof5HC8NViVsP-4" value="PE Config &lt;br&gt;Check ?" style="rhombus;whiteSpace=wrap;html=1;" vertex="1" parent="WIyWlLk6GJQsqaUBKTNV-1">
          <mxGeometry x="304" y="320" width="110" height="90" as="geometry" />
        </mxCell>
        <mxCell id="SfKNRKPeof5HC8NViVsP-5" value="Update Status&amp;nbsp;" style="rounded=1;whiteSpace=wrap;html=1;" vertex="1" parent="WIyWlLk6GJQsqaUBKTNV-1">
          <mxGeometry x="619" y="523" width="120" height="40" as="geometry" />
        </mxCell>
        <mxCell id="SfKNRKPeof5HC8NViVsP-7" value="Notification Sent to Front end" style="rounded=1;whiteSpace=wrap;html=1;" vertex="1" parent="WIyWlLk6GJQsqaUBKTNV-1">
          <mxGeometry x="819" y="524.5" width="160" height="37" as="geometry" />
        </mxCell>
        <mxCell id="SfKNRKPeof5HC8NViVsP-9" value="" style="endArrow=classic;html=1;" edge="1" parent="WIyWlLk6GJQsqaUBKTNV-1" source="SfKNRKPeof5HC8NViVsP-0">
          <mxGeometry width="50" height="50" relative="1" as="geometry">
            <mxPoint x="359" y="210" as="sourcePoint" />
            <mxPoint x="359" y="200" as="targetPoint" />
          </mxGeometry>
        </mxCell>
        <mxCell id="SfKNRKPeof5HC8NViVsP-10" value="" style="endArrow=classic;html=1;exitX=0.5;exitY=1;exitDx=0;exitDy=0;entryX=0.5;entryY=0;entryDx=0;entryDy=0;" edge="1" parent="WIyWlLk6GJQsqaUBKTNV-1" source="SfKNRKPeof5HC8NViVsP-2" target="SfKNRKPeof5HC8NViVsP-3">
          <mxGeometry width="50" height="50" relative="1" as="geometry">
            <mxPoint x="349" y="270" as="sourcePoint" />
            <mxPoint x="399" y="220" as="targetPoint" />
          </mxGeometry>
        </mxCell>
        <mxCell id="SfKNRKPeof5HC8NViVsP-11" value="" style="endArrow=classic;html=1;exitX=0.5;exitY=1;exitDx=0;exitDy=0;entryX=0.5;entryY=0;entryDx=0;entryDy=0;" edge="1" parent="WIyWlLk6GJQsqaUBKTNV-1" source="SfKNRKPeof5HC8NViVsP-3" target="SfKNRKPeof5HC8NViVsP-4">
          <mxGeometry width="50" height="50" relative="1" as="geometry">
            <mxPoint x="359" y="330" as="sourcePoint" />
            <mxPoint x="409" y="280" as="targetPoint" />
          </mxGeometry>
        </mxCell>
        <mxCell id="SfKNRKPeof5HC8NViVsP-12" value="" style="endArrow=classic;html=1;exitX=1;exitY=0.5;exitDx=0;exitDy=0;entryX=0.5;entryY=0;entryDx=0;entryDy=0;" edge="1" parent="WIyWlLk6GJQsqaUBKTNV-1" source="SfKNRKPeof5HC8NViVsP-4" target="SfKNRKPeof5HC8NViVsP-5">
          <mxGeometry width="50" height="50" relative="1" as="geometry">
            <mxPoint x="409" y="410" as="sourcePoint" />
            <mxPoint x="459" y="360" as="targetPoint" />
            <Array as="points">
              <mxPoint x="679" y="365" />
            </Array>
          </mxGeometry>
        </mxCell>
        <mxCell id="SfKNRKPeof5HC8NViVsP-28" value="Failed" style="edgeLabel;html=1;align=center;verticalAlign=middle;resizable=0;points=[];" vertex="1" connectable="0" parent="SfKNRKPeof5HC8NViVsP-12">
          <mxGeometry x="-0.5234" y="2" relative="1" as="geometry">
            <mxPoint as="offset" />
          </mxGeometry>
        </mxCell>
        <mxCell id="SfKNRKPeof5HC8NViVsP-13" value="" style="endArrow=classic;html=1;exitX=1;exitY=0.5;exitDx=0;exitDy=0;entryX=0;entryY=0.5;entryDx=0;entryDy=0;" edge="1" parent="WIyWlLk6GJQsqaUBKTNV-1" source="SfKNRKPeof5HC8NViVsP-5" target="SfKNRKPeof5HC8NViVsP-7">
          <mxGeometry width="50" height="50" relative="1" as="geometry">
            <mxPoint x="659" y="410" as="sourcePoint" />
            <mxPoint x="709" y="360" as="targetPoint" />
          </mxGeometry>
        </mxCell>
        <mxCell id="SfKNRKPeof5HC8NViVsP-14" value="Office Config Check?" style="rhombus;whiteSpace=wrap;html=1;" vertex="1" parent="WIyWlLk6GJQsqaUBKTNV-1">
          <mxGeometry x="302" y="500" width="110" height="90" as="geometry" />
        </mxCell>
        <mxCell id="SfKNRKPeof5HC8NViVsP-15" value="Officer Config Check?" style="rhombus;whiteSpace=wrap;html=1;" vertex="1" parent="WIyWlLk6GJQsqaUBKTNV-1">
          <mxGeometry x="304" y="690" width="110" height="90" as="geometry" />
        </mxCell>
        <mxCell id="SfKNRKPeof5HC8NViVsP-16" value="Product Config Check?" style="rhombus;whiteSpace=wrap;html=1;" vertex="1" parent="WIyWlLk6GJQsqaUBKTNV-1">
          <mxGeometry x="304" y="900" width="110" height="90" as="geometry" />
        </mxCell>
        <mxCell id="SfKNRKPeof5HC8NViVsP-18" value="Update Status&amp;nbsp;" style="rounded=1;whiteSpace=wrap;html=1;" vertex="1" parent="WIyWlLk6GJQsqaUBKTNV-1">
          <mxGeometry x="299" y="445" width="120" height="20" as="geometry" />
        </mxCell>
        <mxCell id="SfKNRKPeof5HC8NViVsP-20" value="Update Status&amp;nbsp;" style="rounded=1;whiteSpace=wrap;html=1;" vertex="1" parent="WIyWlLk6GJQsqaUBKTNV-1">
          <mxGeometry x="299" y="623" width="120" height="20" as="geometry" />
        </mxCell>
        <mxCell id="SfKNRKPeof5HC8NViVsP-21" value="" style="endArrow=classic;html=1;entryX=0.5;entryY=0;entryDx=0;entryDy=0;exitX=0.5;exitY=1;exitDx=0;exitDy=0;" edge="1" parent="WIyWlLk6GJQsqaUBKTNV-1" source="SfKNRKPeof5HC8NViVsP-4" target="SfKNRKPeof5HC8NViVsP-18">
          <mxGeometry width="50" height="50" relative="1" as="geometry">
            <mxPoint x="359" y="420" as="sourcePoint" />
            <mxPoint x="379" y="340" as="targetPoint" />
          </mxGeometry>
        </mxCell>
        <mxCell id="SfKNRKPeof5HC8NViVsP-22" value="" style="endArrow=classic;html=1;exitX=0.5;exitY=1;exitDx=0;exitDy=0;" edge="1" parent="WIyWlLk6GJQsqaUBKTNV-1" source="SfKNRKPeof5HC8NViVsP-18" target="SfKNRKPeof5HC8NViVsP-14">
          <mxGeometry width="50" height="50" relative="1" as="geometry">
            <mxPoint x="359" y="480" as="sourcePoint" />
            <mxPoint x="369" y="455" as="targetPoint" />
          </mxGeometry>
        </mxCell>
        <mxCell id="SfKNRKPeof5HC8NViVsP-23" value="" style="endArrow=classic;html=1;exitX=0.5;exitY=1;exitDx=0;exitDy=0;" edge="1" parent="WIyWlLk6GJQsqaUBKTNV-1">
          <mxGeometry width="50" height="50" relative="1" as="geometry">
            <mxPoint x="358" y="588" as="sourcePoint" />
            <mxPoint x="357.10244988864133" y="623.9020044543429" as="targetPoint" />
          </mxGeometry>
        </mxCell>
        <mxCell id="SfKNRKPeof5HC8NViVsP-24" value="" style="endArrow=classic;html=1;exitX=0.5;exitY=1;exitDx=0;exitDy=0;" edge="1" parent="WIyWlLk6GJQsqaUBKTNV-1" source="SfKNRKPeof5HC8NViVsP-20" target="SfKNRKPeof5HC8NViVsP-15">
          <mxGeometry width="50" height="50" relative="1" as="geometry">
            <mxPoint x="489" y="720" as="sourcePoint" />
            <mxPoint x="539" y="670" as="targetPoint" />
          </mxGeometry>
        </mxCell>
        <mxCell id="SfKNRKPeof5HC8NViVsP-25" value="" style="endArrow=classic;html=1;entryX=0.5;entryY=0;entryDx=0;entryDy=0;exitX=0.5;exitY=1;exitDx=0;exitDy=0;" edge="1" parent="WIyWlLk6GJQsqaUBKTNV-1" source="SfKNRKPeof5HC8NViVsP-15" target="SfKNRKPeof5HC8NViVsP-26">
          <mxGeometry width="50" height="50" relative="1" as="geometry">
            <mxPoint x="349" y="800" as="sourcePoint" />
            <mxPoint x="363.515181194907" y="700.3966699314399" as="targetPoint" />
          </mxGeometry>
        </mxCell>
        <mxCell id="SfKNRKPeof5HC8NViVsP-26" value="Update Status&amp;nbsp;" style="rounded=1;whiteSpace=wrap;html=1;" vertex="1" parent="WIyWlLk6GJQsqaUBKTNV-1">
          <mxGeometry x="299" y="840" width="120" height="20" as="geometry" />
        </mxCell>
        <mxCell id="SfKNRKPeof5HC8NViVsP-27" value="" style="endArrow=classic;html=1;exitX=0.5;exitY=1;exitDx=0;exitDy=0;" edge="1" parent="WIyWlLk6GJQsqaUBKTNV-1" source="SfKNRKPeof5HC8NViVsP-26" target="SfKNRKPeof5HC8NViVsP-16">
          <mxGeometry width="50" height="50" relative="1" as="geometry">
            <mxPoint x="539" y="980" as="sourcePoint" />
            <mxPoint x="589" y="930" as="targetPoint" />
          </mxGeometry>
        </mxCell>
        <mxCell id="SfKNRKPeof5HC8NViVsP-29" value="" style="endArrow=classic;html=1;exitX=1;exitY=0.5;exitDx=0;exitDy=0;entryX=0;entryY=0.5;entryDx=0;entryDy=0;" edge="1" parent="WIyWlLk6GJQsqaUBKTNV-1" source="SfKNRKPeof5HC8NViVsP-14" target="SfKNRKPeof5HC8NViVsP-5">
          <mxGeometry width="50" height="50" relative="1" as="geometry">
            <mxPoint x="409" y="580" as="sourcePoint" />
            <mxPoint x="459" y="530" as="targetPoint" />
          </mxGeometry>
        </mxCell>
        <mxCell id="SfKNRKPeof5HC8NViVsP-30" value="" style="endArrow=classic;html=1;exitX=1;exitY=0.5;exitDx=0;exitDy=0;entryX=0.5;entryY=1;entryDx=0;entryDy=0;" edge="1" parent="WIyWlLk6GJQsqaUBKTNV-1" source="SfKNRKPeof5HC8NViVsP-15" target="SfKNRKPeof5HC8NViVsP-5">
          <mxGeometry width="50" height="50" relative="1" as="geometry">
            <mxPoint x="439" y="780" as="sourcePoint" />
            <mxPoint x="489" y="730" as="targetPoint" />
            <Array as="points">
              <mxPoint x="679" y="735" />
            </Array>
          </mxGeometry>
        </mxCell>
        <mxCell id="SfKNRKPeof5HC8NViVsP-31" value="Failed" style="edgeLabel;html=1;align=center;verticalAlign=middle;resizable=0;points=[];" vertex="1" connectable="0" parent="SfKNRKPeof5HC8NViVsP-30">
          <mxGeometry x="-0.5572" y="-3" relative="1" as="geometry">
            <mxPoint as="offset" />
          </mxGeometry>
        </mxCell>
        <mxCell id="SfKNRKPeof5HC8NViVsP-32" value="" style="endArrow=classic;html=1;exitX=1;exitY=0.5;exitDx=0;exitDy=0;entryX=0.75;entryY=1;entryDx=0;entryDy=0;" edge="1" parent="WIyWlLk6GJQsqaUBKTNV-1" source="SfKNRKPeof5HC8NViVsP-16" target="SfKNRKPeof5HC8NViVsP-5">
          <mxGeometry width="50" height="50" relative="1" as="geometry">
            <mxPoint x="609" y="1000" as="sourcePoint" />
            <mxPoint x="710" y="570" as="targetPoint" />
            <Array as="points">
              <mxPoint x="710" y="950" />
            </Array>
          </mxGeometry>
        </mxCell>
        <mxCell id="SfKNRKPeof5HC8NViVsP-34" value="Failed" style="edgeLabel;html=1;align=center;verticalAlign=middle;resizable=0;points=[];" vertex="1" connectable="0" parent="SfKNRKPeof5HC8NViVsP-32">
          <mxGeometry x="-0.4188" y="1" relative="1" as="geometry">
            <mxPoint as="offset" />
          </mxGeometry>
        </mxCell>
        <mxCell id="SfKNRKPeof5HC8NViVsP-35" value="Preliminary Checks Complete" style="rounded=1;whiteSpace=wrap;html=1;" vertex="1" parent="WIyWlLk6GJQsqaUBKTNV-1">
          <mxGeometry x="259" y="1040" width="200" height="20" as="geometry" />
        </mxCell>
        <mxCell id="SfKNRKPeof5HC8NViVsP-36" value="" style="endArrow=classic;html=1;exitX=0.5;exitY=1;exitDx=0;exitDy=0;entryX=0.5;entryY=0;entryDx=0;entryDy=0;" edge="1" parent="WIyWlLk6GJQsqaUBKTNV-1" source="SfKNRKPeof5HC8NViVsP-16" target="SfKNRKPeof5HC8NViVsP-35">
          <mxGeometry width="50" height="50" relative="1" as="geometry">
            <mxPoint x="179" y="1020" as="sourcePoint" />
            <mxPoint x="229" y="970" as="targetPoint" />
          </mxGeometry>
        </mxCell>
        <mxCell id="SfKNRKPeof5HC8NViVsP-37" value="" style="endArrow=classic;html=1;entryX=0.5;entryY=1;entryDx=0;entryDy=0;" edge="1" parent="WIyWlLk6GJQsqaUBKTNV-1" target="SfKNRKPeof5HC8NViVsP-7">
          <mxGeometry width="50" height="50" relative="1" as="geometry">
            <mxPoint x="460" y="1050" as="sourcePoint" />
            <mxPoint x="519" y="1050" as="targetPoint" />
            <Array as="points">
              <mxPoint x="899" y="1050" />
              <mxPoint x="899" y="1030" />
              <mxPoint x="899" y="1000" />
            </Array>
          </mxGeometry>
        </mxCell>
        <mxCell id="SfKNRKPeof5HC8NViVsP-39" value="" style="endArrow=classic;html=1;exitX=0.5;exitY=1;exitDx=0;exitDy=0;" edge="1" parent="WIyWlLk6GJQsqaUBKTNV-1" source="SfKNRKPeof5HC8NViVsP-35" target="SfKNRKPeof5HC8NViVsP-40">
          <mxGeometry width="50" height="50" relative="1" as="geometry">
            <mxPoint x="536" y="1220" as="sourcePoint" />
            <mxPoint x="445.2352941176471" y="1220" as="targetPoint" />
          </mxGeometry>
        </mxCell>
        <mxCell id="SfKNRKPeof5HC8NViVsP-40" value="Success?" style="rhombus;whiteSpace=wrap;html=1;" vertex="1" parent="WIyWlLk6GJQsqaUBKTNV-1">
          <mxGeometry x="312" y="1100" width="96" height="70" as="geometry" />
        </mxCell>
        <mxCell id="SfKNRKPeof5HC8NViVsP-45" value="IF Client ?" style="rhombus;whiteSpace=wrap;html=1;" vertex="1" parent="WIyWlLk6GJQsqaUBKTNV-1">
          <mxGeometry x="312" y="1200" width="95" height="70" as="geometry" />
        </mxCell>
        <mxCell id="SfKNRKPeof5HC8NViVsP-48" value="Data &lt;br&gt;Validation: Errors?" style="rhombus;whiteSpace=wrap;html=1;" vertex="1" parent="WIyWlLk6GJQsqaUBKTNV-1">
          <mxGeometry x="312" y="1315" width="95" height="75" as="geometry" />
        </mxCell>
        <mxCell id="SfKNRKPeof5HC8NViVsP-59" style="edgeStyle=orthogonalEdgeStyle;rounded=0;orthogonalLoop=1;jettySize=auto;html=1;entryX=0;entryY=0.5;entryDx=0;entryDy=0;" edge="1" parent="WIyWlLk6GJQsqaUBKTNV-1" source="SfKNRKPeof5HC8NViVsP-49" target="SfKNRKPeof5HC8NViVsP-57">
          <mxGeometry relative="1" as="geometry" />
        </mxCell>
        <mxCell id="SfKNRKPeof5HC8NViVsP-49" value="Log Errors" style="rounded=1;whiteSpace=wrap;html=1;" vertex="1" parent="WIyWlLk6GJQsqaUBKTNV-1">
          <mxGeometry x="459" y="1344.5" width="120" height="17.5" as="geometry" />
        </mxCell>
        <mxCell id="SfKNRKPeof5HC8NViVsP-50" value="" style="endArrow=classic;html=1;exitX=1;exitY=0.5;exitDx=0;exitDy=0;entryX=0.624;entryY=1.041;entryDx=0;entryDy=0;entryPerimeter=0;" edge="1" parent="WIyWlLk6GJQsqaUBKTNV-1" source="SfKNRKPeof5HC8NViVsP-40" target="SfKNRKPeof5HC8NViVsP-7">
          <mxGeometry width="50" height="50" relative="1" as="geometry">
            <mxPoint x="500" y="1190" as="sourcePoint" />
            <mxPoint x="550" y="1140" as="targetPoint" />
            <Array as="points">
              <mxPoint x="919" y="1140" />
            </Array>
          </mxGeometry>
        </mxCell>
        <mxCell id="SfKNRKPeof5HC8NViVsP-51" value="No" style="edgeLabel;html=1;align=center;verticalAlign=middle;resizable=0;points=[];" vertex="1" connectable="0" parent="SfKNRKPeof5HC8NViVsP-50">
          <mxGeometry x="0.2608" y="4" relative="1" as="geometry">
            <mxPoint as="offset" />
          </mxGeometry>
        </mxCell>
        <mxCell id="SfKNRKPeof5HC8NViVsP-52" value="" style="endArrow=classic;html=1;exitX=0.5;exitY=1;exitDx=0;exitDy=0;entryX=0.5;entryY=0;entryDx=0;entryDy=0;" edge="1" parent="WIyWlLk6GJQsqaUBKTNV-1" source="SfKNRKPeof5HC8NViVsP-40" target="SfKNRKPeof5HC8NViVsP-45">
          <mxGeometry width="50" height="50" relative="1" as="geometry">
            <mxPoint x="359.5" y="1179.2893218813451" as="sourcePoint" />
            <mxPoint x="410" y="1210" as="targetPoint" />
          </mxGeometry>
        </mxCell>
        <mxCell id="SfKNRKPeof5HC8NViVsP-53" value="" style="endArrow=classic;html=1;exitX=0.5;exitY=1;exitDx=0;exitDy=0;entryX=0.5;entryY=0;entryDx=0;entryDy=0;" edge="1" parent="WIyWlLk6GJQsqaUBKTNV-1" source="SfKNRKPeof5HC8NViVsP-45" target="SfKNRKPeof5HC8NViVsP-48">
          <mxGeometry width="50" height="50" relative="1" as="geometry">
            <mxPoint x="500" y="1370" as="sourcePoint" />
            <mxPoint x="550" y="1320" as="targetPoint" />
          </mxGeometry>
        </mxCell>
        <mxCell id="SfKNRKPeof5HC8NViVsP-54" value="Yes" style="edgeLabel;html=1;align=center;verticalAlign=middle;resizable=0;points=[];" vertex="1" connectable="0" parent="SfKNRKPeof5HC8NViVsP-53">
          <mxGeometry x="-0.4881" y="3" relative="1" as="geometry">
            <mxPoint as="offset" />
          </mxGeometry>
        </mxCell>
        <mxCell id="SfKNRKPeof5HC8NViVsP-55" value="" style="endArrow=classic;html=1;exitX=1;exitY=0.5;exitDx=0;exitDy=0;entryX=0;entryY=0.5;entryDx=0;entryDy=0;" edge="1" parent="WIyWlLk6GJQsqaUBKTNV-1" source="SfKNRKPeof5HC8NViVsP-48" target="SfKNRKPeof5HC8NViVsP-49">
          <mxGeometry width="50" height="50" relative="1" as="geometry">
            <mxPoint x="510" y="1300" as="sourcePoint" />
            <mxPoint x="560" y="1250" as="targetPoint" />
          </mxGeometry>
        </mxCell>
        <mxCell id="SfKNRKPeof5HC8NViVsP-57" value="Notify Frontend" style="rounded=1;whiteSpace=wrap;html=1;" vertex="1" parent="WIyWlLk6GJQsqaUBKTNV-1">
          <mxGeometry x="641" y="1344" width="120" height="20" as="geometry" />
        </mxCell>
        <mxCell id="SfKNRKPeof5HC8NViVsP-60" value="Cache Data Structure" style="rounded=1;whiteSpace=wrap;html=1;" vertex="1" parent="WIyWlLk6GJQsqaUBKTNV-1">
          <mxGeometry x="799" y="1344.25" width="120" height="20" as="geometry" />
        </mxCell>
        <mxCell id="SfKNRKPeof5HC8NViVsP-61" value="" style="endArrow=classic;html=1;exitX=1;exitY=0.5;exitDx=0;exitDy=0;entryX=0;entryY=0.5;entryDx=0;entryDy=0;" edge="1" parent="WIyWlLk6GJQsqaUBKTNV-1" source="SfKNRKPeof5HC8NViVsP-57" target="SfKNRKPeof5HC8NViVsP-60">
          <mxGeometry width="50" height="50" relative="1" as="geometry">
            <mxPoint x="840" y="1420" as="sourcePoint" />
            <mxPoint x="890" y="1370" as="targetPoint" />
          </mxGeometry>
        </mxCell>
        <mxCell id="SfKNRKPeof5HC8NViVsP-62" value="IF Group ?" style="rhombus;whiteSpace=wrap;html=1;" vertex="1" parent="WIyWlLk6GJQsqaUBKTNV-1">
          <mxGeometry x="320.25" y="1440" width="77.5" height="60" as="geometry" />
        </mxCell>
        <mxCell id="SfKNRKPeof5HC8NViVsP-63" value="Data Validation: Errors?" style="rhombus;whiteSpace=wrap;html=1;" vertex="1" parent="WIyWlLk6GJQsqaUBKTNV-1">
          <mxGeometry x="317" y="1550" width="85" height="70" as="geometry" />
        </mxCell>
        <mxCell id="SfKNRKPeof5HC8NViVsP-74" style="edgeStyle=orthogonalEdgeStyle;rounded=0;orthogonalLoop=1;jettySize=auto;html=1;entryX=0;entryY=0.5;entryDx=0;entryDy=0;" edge="1" parent="WIyWlLk6GJQsqaUBKTNV-1" source="SfKNRKPeof5HC8NViVsP-75" target="SfKNRKPeof5HC8NViVsP-77">
          <mxGeometry relative="1" as="geometry" />
        </mxCell>
        <mxCell id="SfKNRKPeof5HC8NViVsP-75" value="Log Errors" style="rounded=1;whiteSpace=wrap;html=1;" vertex="1" parent="WIyWlLk6GJQsqaUBKTNV-1">
          <mxGeometry x="453" y="1575.25" width="120" height="17.5" as="geometry" />
        </mxCell>
        <mxCell id="SfKNRKPeof5HC8NViVsP-76" value="" style="endArrow=classic;html=1;exitX=1;exitY=0.5;exitDx=0;exitDy=0;entryX=0;entryY=0.5;entryDx=0;entryDy=0;" edge="1" parent="WIyWlLk6GJQsqaUBKTNV-1" target="SfKNRKPeof5HC8NViVsP-75" source="SfKNRKPeof5HC8NViVsP-63">
          <mxGeometry width="50" height="50" relative="1" as="geometry">
            <mxPoint x="427" y="1583.5" as="sourcePoint" />
            <mxPoint x="580" y="1481" as="targetPoint" />
          </mxGeometry>
        </mxCell>
        <mxCell id="SfKNRKPeof5HC8NViVsP-77" value="Notify Frontend" style="rounded=1;whiteSpace=wrap;html=1;" vertex="1" parent="WIyWlLk6GJQsqaUBKTNV-1">
          <mxGeometry x="633" y="1575" width="120" height="20" as="geometry" />
        </mxCell>
        <mxCell id="SfKNRKPeof5HC8NViVsP-78" value="Cache Data Structure" style="rounded=1;whiteSpace=wrap;html=1;" vertex="1" parent="WIyWlLk6GJQsqaUBKTNV-1">
          <mxGeometry x="789" y="1575.25" width="120" height="20" as="geometry" />
        </mxCell>
        <mxCell id="SfKNRKPeof5HC8NViVsP-79" value="" style="endArrow=classic;html=1;exitX=1;exitY=0.5;exitDx=0;exitDy=0;entryX=0;entryY=0.5;entryDx=0;entryDy=0;" edge="1" parent="WIyWlLk6GJQsqaUBKTNV-1" source="SfKNRKPeof5HC8NViVsP-77" target="SfKNRKPeof5HC8NViVsP-78">
          <mxGeometry width="50" height="50" relative="1" as="geometry">
            <mxPoint x="860" y="1651" as="sourcePoint" />
            <mxPoint x="910" y="1601" as="targetPoint" />
          </mxGeometry>
        </mxCell>
        <mxCell id="SfKNRKPeof5HC8NViVsP-80" value="" style="endArrow=classic;html=1;exitX=0.5;exitY=1;exitDx=0;exitDy=0;entryX=0.5;entryY=0;entryDx=0;entryDy=0;" edge="1" parent="WIyWlLk6GJQsqaUBKTNV-1" source="SfKNRKPeof5HC8NViVsP-48" target="SfKNRKPeof5HC8NViVsP-62">
          <mxGeometry width="50" height="50" relative="1" as="geometry">
            <mxPoint x="360" y="1430" as="sourcePoint" />
            <mxPoint x="410" y="1380" as="targetPoint" />
          </mxGeometry>
        </mxCell>
        <mxCell id="SfKNRKPeof5HC8NViVsP-81" value="" style="endArrow=classic;html=1;exitX=0.5;exitY=1;exitDx=0;exitDy=0;" edge="1" parent="WIyWlLk6GJQsqaUBKTNV-1" source="SfKNRKPeof5HC8NViVsP-62" target="SfKNRKPeof5HC8NViVsP-63">
          <mxGeometry width="50" height="50" relative="1" as="geometry">
            <mxPoint x="430" y="1730" as="sourcePoint" />
            <mxPoint x="480" y="1680" as="targetPoint" />
          </mxGeometry>
        </mxCell>
        <mxCell id="SfKNRKPeof5HC8NViVsP-94" value="IF Group ?" style="rhombus;whiteSpace=wrap;html=1;" vertex="1" parent="WIyWlLk6GJQsqaUBKTNV-1">
          <mxGeometry x="322.25" y="1670" width="77.5" height="60" as="geometry" />
        </mxCell>
        <mxCell id="SfKNRKPeof5HC8NViVsP-95" value="Data Validation: Errors?" style="rhombus;whiteSpace=wrap;html=1;" vertex="1" parent="WIyWlLk6GJQsqaUBKTNV-1">
          <mxGeometry x="319" y="1780" width="85" height="70" as="geometry" />
        </mxCell>
        <mxCell id="SfKNRKPeof5HC8NViVsP-102" style="edgeStyle=orthogonalEdgeStyle;rounded=0;orthogonalLoop=1;jettySize=auto;html=1;entryX=0;entryY=0.5;entryDx=0;entryDy=0;" edge="1" parent="WIyWlLk6GJQsqaUBKTNV-1" source="SfKNRKPeof5HC8NViVsP-103" target="SfKNRKPeof5HC8NViVsP-105">
          <mxGeometry relative="1" as="geometry" />
        </mxCell>
        <mxCell id="SfKNRKPeof5HC8NViVsP-103" value="Log Errors" style="rounded=1;whiteSpace=wrap;html=1;" vertex="1" parent="WIyWlLk6GJQsqaUBKTNV-1">
          <mxGeometry x="455" y="1805.25" width="120" height="17.5" as="geometry" />
        </mxCell>
        <mxCell id="SfKNRKPeof5HC8NViVsP-104" value="" style="endArrow=classic;html=1;exitX=1;exitY=0.5;exitDx=0;exitDy=0;entryX=0;entryY=0.5;entryDx=0;entryDy=0;" edge="1" parent="WIyWlLk6GJQsqaUBKTNV-1" source="SfKNRKPeof5HC8NViVsP-95" target="SfKNRKPeof5HC8NViVsP-103">
          <mxGeometry width="50" height="50" relative="1" as="geometry">
            <mxPoint x="429" y="1813.5" as="sourcePoint" />
            <mxPoint x="582" y="1711" as="targetPoint" />
          </mxGeometry>
        </mxCell>
        <mxCell id="SfKNRKPeof5HC8NViVsP-105" value="Notify Frontend" style="rounded=1;whiteSpace=wrap;html=1;" vertex="1" parent="WIyWlLk6GJQsqaUBKTNV-1">
          <mxGeometry x="635" y="1805" width="120" height="20" as="geometry" />
        </mxCell>
        <mxCell id="SfKNRKPeof5HC8NViVsP-106" value="Cache Data Structure" style="rounded=1;whiteSpace=wrap;html=1;" vertex="1" parent="WIyWlLk6GJQsqaUBKTNV-1">
          <mxGeometry x="791" y="1805.25" width="120" height="20" as="geometry" />
        </mxCell>
        <mxCell id="SfKNRKPeof5HC8NViVsP-107" value="" style="endArrow=classic;html=1;exitX=1;exitY=0.5;exitDx=0;exitDy=0;entryX=0;entryY=0.5;entryDx=0;entryDy=0;" edge="1" parent="WIyWlLk6GJQsqaUBKTNV-1" source="SfKNRKPeof5HC8NViVsP-105" target="SfKNRKPeof5HC8NViVsP-106">
          <mxGeometry width="50" height="50" relative="1" as="geometry">
            <mxPoint x="862" y="1881" as="sourcePoint" />
            <mxPoint x="912" y="1831" as="targetPoint" />
          </mxGeometry>
        </mxCell>
        <mxCell id="SfKNRKPeof5HC8NViVsP-108" value="" style="endArrow=classic;html=1;exitX=0.5;exitY=1;exitDx=0;exitDy=0;entryX=0.5;entryY=0;entryDx=0;entryDy=0;" edge="1" parent="WIyWlLk6GJQsqaUBKTNV-1">
          <mxGeometry width="50" height="50" relative="1" as="geometry">
            <mxPoint x="359.5" y="1620" as="sourcePoint" />
            <mxPoint x="359" y="1670" as="targetPoint" />
          </mxGeometry>
        </mxCell>
        <mxCell id="SfKNRKPeof5HC8NViVsP-109" value="" style="endArrow=classic;html=1;exitX=0.5;exitY=1;exitDx=0;exitDy=0;" edge="1" parent="WIyWlLk6GJQsqaUBKTNV-1" source="SfKNRKPeof5HC8NViVsP-94" target="SfKNRKPeof5HC8NViVsP-95">
          <mxGeometry width="50" height="50" relative="1" as="geometry">
            <mxPoint x="432" y="1960" as="sourcePoint" />
            <mxPoint x="482" y="1910" as="targetPoint" />
          </mxGeometry>
        </mxCell>
      </root>
    </mxGraphModel>
  </diagram>
</mxfile>
